<mxfile host="app.diagrams.net" modified="2023-05-11T07:33:45.985Z" agent="Mozilla/5.0 (Windows NT 10.0; Win64; x64) AppleWebKit/537.36 (KHTML, like Gecko) Chrome/112.0.0.0 Safari/537.36" version="21.2.9" etag="WtLqmE4qNLrx4jOE24V4" type="github">
  <diagram name="Page-1" id="KH4eqgoi9VZfVzONVicZ">
    <mxGraphModel>
      <root>
        <mxCell id="0" />
        <mxCell id="1" parent="0" />
      </root>
    </mxGraphModel>
  </diagram>
</mxfile>
